# xmcd
#
# Track frame offsets:
# 150
# 13202
# 29671
# 44595
# 59910
# 72596
# 88021
# 105227
# 123693
# 136150
# 148957
# 164843
# 178207
# 193260
# 207737
#
# Disc length: 2993 seconds
#
#
# Revision: 14
# Processed by: cddbd v1.5.2PL0 Copyright (c) Steve Scherf et al.
# Submitted via: FreeRIP 2.943 
#
DISCID=020baf0f
DTITLE=Louisan, Annett - Unausgesprochen - Unausgesprochen
DYEAR=2005
DGENRE=Jazz
TTITLE0=Das große Erwachen (...und jetzt...)
TTITLE1=Torsten Schmidt
TTITLE2=Chancenlos
TTITLE3=Gedacht ich sage Nein
TTITLE4=Eve
TTITLE5=Läuft alles perfekt
TTITLE6=Wo ist das Problem?
TTITLE7=Er gehörte mal mir
TTITLE8=Die Lösung
TTITLE9=Der den ich will
TTITLE10=Vielleicht
TTITLE11=Widder wider Willen
TTITLE12=Beerdigung
TTITLE13=Ausgesprochen Unausgesprochen
TTITLE14=Was hast Du vor?
EXTD=
EXTT0=
EXTT1=
EXTT2=
EXTT3=
EXTT4=
EXTT5=
EXTT6=
EXTT7=
EXTT8=
EXTT9=
EXTT10=
EXTT11=
EXTT12=
EXTT13=
EXTT14=
PLAYORDER=
